# Blender v2.73 (sub 0) OBJ File: ''
# www.blender.org
mtllib hexagon.mtl
o Cylinder
v -0.250000 -0.064088 0.433013
v -0.250000 1.935912 0.433013
v -0.500000 -0.064088 -0.000000
v -0.500000 1.935912 -0.000000
v -0.250000 -0.064088 -0.433013
v -0.250000 1.935912 -0.433013
v 0.250000 -0.064088 -0.433013
v 0.250000 1.935912 -0.433013
v 0.500000 -0.064088 0.000000
v 0.500000 1.935912 0.000000
v 0.250000 -0.064088 0.433013
v 0.250000 1.935912 0.433013
vn -0.866000 0.000000 0.500000
vn -0.866000 0.000000 -0.500000
vn 0.000000 0.000000 -1.000000
vn 0.866000 0.000000 -0.500000
vn 0.000000 1.000000 0.000000
vn 0.000000 0.000000 1.000000
vn 0.866000 0.000000 0.500000
vn 0.000000 -1.000000 0.000000
usemtl None
s off
f 2//1 4//1 3//1
f 4//2 6//2 5//2
f 6//3 8//3 7//3
f 8//4 10//4 9//4
f 4//5 12//5 8//5
f 12//6 2//6 1//6
f 10//7 12//7 11//7
f 1//8 5//8 9//8
f 1//1 2//1 3//1
f 3//2 4//2 5//2
f 5//3 6//3 7//3
f 7//4 8//4 9//4
f 8//5 6//5 4//5
f 12//5 10//5 8//5
f 4//5 2//5 12//5
f 11//6 12//6 1//6
f 9//7 10//7 11//7
f 9//8 11//8 1//8
f 5//8 7//8 9//8
f 1//8 3//8 5//8
